{"title":"The Who (Live) - Superbowl Halftime Feb 7 2010 -[ Ehhhhtozebec].","uid":5393971,"size":384703257,"categoryP":"video","categoryS":"music_videos","magnet":"?xt=urn:btih:bf7c526af80fa35cd85f3ae19bfcd18a7315d2de&amp;dn=The+Who+%28Live%29+-+Superbowl+Halftime+Feb+7+2010+-%5B+Ehhhhtozebec%5D.&amp;tr=udp%3A%2F%2Ftracker.openbittorrent.com%3A80&amp;tr=udp%3A%2F%2Fopen.demonii.com%3A1337&amp;tr=udp%3A%2F%2Ftracker.coppersurfer.tk%3A6969&amp;tr=udp%3A%2F%2Fexodus.desync.com%3A6969","seeders":0,"leechers":1,"uploader":"mynameisurlz","files":2,"time":1267163097,"description":"the Who perform at superbowl 2010\n\nGeneral\nComplete name                    : C:Documents and SettingsMynameisurlzDesktopVidzThe Who (Live) - Superbowl Halftime Feb 7 2010 -[ Ehhhhtozebec].avi\nFormat                           : AVI\nFormat/Info                      : Audio Video Interleave\nFile size                        : 367 MiB\nDuration                         : 12mn 11s\nOverall bit rate                 : 4 205 Kbps\nMovie name                       : 00000\nWriting application              : Lavf52.22.1\n\nVideo\nFormat                           : S-Mpeg 4 v2\nCodec ID                         : MP42\nCodec ID/Info                    : Microsoft MPEG-4 V2\nDuration                         : 12mn 11s\nBit rate                         : 4 000 Kbps\nWidth                            : 720 pixels\nHeight                           : 480 pixels\nDisplay aspect ratio             : 1.500\nFrame rate                       : 29.970 fps\nStandard                         : NTSC\nBits/(Pixel*Frame)               : 0.386\nStream size                      : 349 MiB (95%)\n\nAudio\nID                               : 1\nFormat                           : MPEG Audio\nFormat version                   : Version 1\nFormat profile                   : Layer 3\nMode                             : Joint stereo\nFormat_Settings_ModeExtension    : MS Stereo\nCodec ID                         : 55\nCodec ID/Hint                    : MP3\nDuration                         : 12mn 11s\nBit rate mode                    : Constant\nBit rate                         : 192 Kbps\nChannel(s)                       : 2 channels\nSampling rate                    : 44.1 KHz\nStream size                      : 16.8 MiB (5%)\nAlignment                        : Aligned on interleaves\nInterleave, duration             : 26 ms (0.78 video frame)\n\n","torrent":{"xt":"urn:btih:bf7c526af80fa35cd85f3ae19bfcd18a7315d2de","amp;dn":"The+Who+%28Live%29+-+Superbowl+Halftime+Feb+7+2010+-%5B+Ehhhhtozebec%5D.","amp;tr":["udp%3A%2F%2Ftracker.openbittorrent.com%3A80","udp%3A%2F%2Fopen.demonii.com%3A1337","udp%3A%2F%2Ftracker.coppersurfer.tk%3A6969","udp%3A%2F%2Fexodus.desync.com%3A6969"],"infoHash":"bf7c526af80fa35cd85f3ae19bfcd18a7315d2de","infoHashBuffer":{"type":"Buffer","data":[191,124,82,106,248,15,163,92,216,95,58,225,155,252,209,138,115,21,210,222]},"announce":[],"urlList":[]}}